<svg xmlns="http://www.w3.org/2000/svg" width="760" height="360" viewBox="0 0 760 360" font-family="system-ui,-apple-system,&#x27;Segoe UI&#x27;,Roboto,sans-serif" role="img">
<title>Extraction score by document type</title>
<rect width="760" height="360" fill="#ffffff"/>
<text x="16" y="24" font-size="15" font-weight="600" fill="#0b0b0b">Extraction score by document type</text>
<text x="16" y="42" font-size="11.5" fill="#6f6e69">Mean overall_score of each model&#x27;s latest real frozen-prompt run (n ≥ 20) per type</text>
<line x1="52" x2="744" y1="302" y2="302" stroke="#e1e0d9"/>
<text x="46" y="306" font-size="11" fill="#6f6e69" text-anchor="end">0.0</text>
<line x1="52" x2="744" y1="258.4" y2="258.4" stroke="#e1e0d9"/>
<text x="46" y="262.4" font-size="11" fill="#6f6e69" text-anchor="end">0.2</text>
<line x1="52" x2="744" y1="214.8" y2="214.8" stroke="#e1e0d9"/>
<text x="46" y="218.8" font-size="11" fill="#6f6e69" text-anchor="end">0.4</text>
<line x1="52" x2="744" y1="171.2" y2="171.2" stroke="#e1e0d9"/>
<text x="46" y="175.2" font-size="11" fill="#6f6e69" text-anchor="end">0.6</text>
<line x1="52" x2="744" y1="127.6" y2="127.6" stroke="#e1e0d9"/>
<text x="46" y="131.6" font-size="11" fill="#6f6e69" text-anchor="end">0.8</text>
<line x1="52" x2="744" y1="84" y2="84" stroke="#e1e0d9"/>
<text x="46" y="88" font-size="11" fill="#6f6e69" text-anchor="end">1.0</text>
<rect x="52" y="53" width="10" height="10" rx="2" fill="#1baf7a"/>
<text x="70" y="62" font-size="11" fill="#3d3d3a" text-anchor="start">DeepSeek V4.1 Flash</text>
<rect x="209.11" y="53" width="10" height="10" rx="2" fill="#eb6834"/>
<text x="227.11" y="62" font-size="11" fill="#3d3d3a" text-anchor="start">Granite 4.2 8B</text>
<rect x="330.58" y="53" width="10" height="10" rx="2" fill="#2a78d6"/>
<text x="348.58" y="62" font-size="11" fill="#3d3d3a" text-anchor="start">Qwen3 8B</text>
<rect x="423.78" y="53" width="10" height="10" rx="2" fill="#8a5cd6"/>
<text x="441.78" y="62" font-size="11" fill="#3d3d3a" text-anchor="start">Qwen3.7 Flash</text>
<rect x="66.84" y="205.67" width="25.68" height="96.33" fill="#1baf7a" rx="2"/>
<text x="79.68" y="201.67" font-size="10" fill="#3d3d3a" text-anchor="middle">0.44</text>
<rect x="94.52" y="213.38" width="25.68" height="88.62" fill="#eb6834" rx="2"/>
<text x="107.36" y="209.38" font-size="10" fill="#3d3d3a" text-anchor="middle">0.41</text>
<rect x="122.2" y="190.17" width="25.68" height="111.83" fill="#2a78d6" rx="2"/>
<text x="135.04" y="186.17" font-size="10" fill="#3d3d3a" text-anchor="middle">0.51</text>
<rect x="149.88" y="191.23" width="25.68" height="110.77" fill="#8a5cd6" rx="2"/>
<text x="162.72" y="187.23" font-size="10" fill="#3d3d3a" text-anchor="middle">0.51</text>
<text x="121.2" y="318" font-size="11" fill="#3d3d3a" text-anchor="middle">Correspondence</text>
<rect x="205.24" y="128.17" width="25.68" height="173.83" fill="#1baf7a" rx="2"/>
<text x="218.08" y="124.17" font-size="10" fill="#3d3d3a" text-anchor="middle">0.80</text>
<rect x="232.92" y="146.46" width="25.68" height="155.54" fill="#eb6834" rx="2"/>
<text x="245.76" y="142.46" font-size="10" fill="#3d3d3a" text-anchor="middle">0.71</text>
<rect x="260.6" y="138.76" width="25.68" height="163.24" fill="#2a78d6" rx="2"/>
<text x="273.44" y="134.76" font-size="10" fill="#3d3d3a" text-anchor="middle">0.75</text>
<rect x="288.28" y="130.96" width="25.68" height="171.04" fill="#8a5cd6" rx="2"/>
<text x="301.12" y="126.96" font-size="10" fill="#3d3d3a" text-anchor="middle">0.78</text>
<text x="259.6" y="318" font-size="11" fill="#3d3d3a" text-anchor="middle">Insurance claims</text>
<rect x="343.64" y="205.75" width="25.68" height="96.25" fill="#1baf7a" rx="2"/>
<text x="356.48" y="201.75" font-size="10" fill="#3d3d3a" text-anchor="middle">0.44</text>
<rect x="371.32" y="211.4" width="25.68" height="90.6" fill="#eb6834" rx="2"/>
<text x="384.16" y="207.4" font-size="10" fill="#3d3d3a" text-anchor="middle">0.42</text>
<rect x="399" y="214.71" width="25.68" height="87.29" fill="#2a78d6" rx="2"/>
<text x="411.84" y="210.71" font-size="10" fill="#3d3d3a" text-anchor="middle">0.40</text>
<rect x="426.68" y="212.77" width="25.68" height="89.23" fill="#8a5cd6" rx="2"/>
<text x="439.52" y="208.77" font-size="10" fill="#3d3d3a" text-anchor="middle">0.41</text>
<text x="398" y="318" font-size="11" fill="#3d3d3a" text-anchor="middle">Corporate records</text>
<rect x="482.04" y="190.01" width="25.68" height="111.99" fill="#1baf7a" rx="2"/>
<text x="494.88" y="186.01" font-size="10" fill="#3d3d3a" text-anchor="middle">0.51</text>
<rect x="509.72" y="198.04" width="25.68" height="103.96" fill="#eb6834" rx="2"/>
<text x="522.56" y="194.04" font-size="10" fill="#3d3d3a" text-anchor="middle">0.48</text>
<rect x="537.4" y="167.52" width="25.68" height="134.48" fill="#2a78d6" rx="2"/>
<text x="550.24" y="163.52" font-size="10" fill="#3d3d3a" text-anchor="middle">0.62</text>
<rect x="565.08" y="182.88" width="25.68" height="119.12" fill="#8a5cd6" rx="2"/>
<text x="577.92" y="178.88" font-size="10" fill="#3d3d3a" text-anchor="middle">0.55</text>
<text x="536.4" y="318" font-size="11" fill="#3d3d3a" text-anchor="middle">Contracts</text>
<rect x="620.44" y="164.79" width="25.68" height="137.21" fill="#1baf7a" rx="2"/>
<text x="633.28" y="160.79" font-size="10" fill="#3d3d3a" text-anchor="middle">0.63</text>
<rect x="648.12" y="202.85" width="25.68" height="99.15" fill="#eb6834" rx="2"/>
<text x="660.96" y="198.85" font-size="10" fill="#3d3d3a" text-anchor="middle">0.45</text>
<rect x="703.48" y="213.38" width="25.68" height="88.62" fill="#8a5cd6" rx="2"/>
<text x="716.32" y="209.38" font-size="10" fill="#3d3d3a" text-anchor="middle">0.41</text>
<text x="674.8" y="318" font-size="11" fill="#3d3d3a" text-anchor="middle">Merger agreements</text>
<line x1="52" x2="744" y1="302" y2="302" stroke="#c3c2b7"/>
</svg>
